<mxfile host="app.diagrams.net" modified="2024-03-30T20:32:22.527Z" agent="Mozilla/5.0 (Macintosh; Intel Mac OS X 10_15_7) AppleWebKit/537.36 (KHTML, like Gecko) Chrome/123.0.0.0 Safari/537.36" version="24.2.1" etag="1cI0hhunlu0URnON6xrd" type="github">
  <diagram name="Страница — 1" id="x4DThg14Sq1mkyklbQ8y">
    <mxGraphModel>
      <root>
        <mxCell id="0" />
        <mxCell id="1" parent="0" />
      </root>
    </mxGraphModel>
  </diagram>
</mxfile>
